<svg width="1195" height="595" viewBox="0 0 1195 595" fill="none" xmlns="http://www.w3.org/2000/svg">
<path fill-rule="evenodd" clip-rule="evenodd" d="M379.426 452.394L578.355 337.57L777.24 452.353L578.355 567.177L379.426 452.394Z" fill="#004293"/>
<path d="M167.634 420.178L232.42 457.576L339.682 395.663L436.163 451.352" stroke="#1ADCF0" stroke-miterlimit="1.5" stroke-linecap="round" stroke-linejoin="round"/>
<path d="M820.428 435.636L865.538 409.594L807.701 442.981L771.297 421.966L692.395 467.512" stroke="#1ADCF0" stroke-miterlimit="1.5" stroke-linecap="round" stroke-linejoin="round"/>
<path d="M748.93 394.366L736.202 401.711L701.138 381.469L622.236 427.014" stroke="#1ADCF0" stroke-miterlimit="1.5" stroke-linecap="round" stroke-linejoin="round"/>
<path d="M793.638 434.864L753.751 411.838L674.85 457.383" stroke="#1ADCF0" stroke-miterlimit="1.5" stroke-linecap="round" stroke-linejoin="round"/>
<path d="M776.088 424.735L736.202 401.709L657.3 447.254" stroke="#1ADCF0" stroke-miterlimit="1.5" stroke-linecap="round" stroke-linejoin="round"/>
<path d="M907.702 302.718L736.206 401.709L718.657 391.58L639.755 437.125" stroke="#1ADCF0" stroke-miterlimit="1.5" stroke-linecap="round" stroke-linejoin="round"/>
<path d="M1069.61 291.807L1001.89 330.892L929.228 290.295L859.035 249.78L929.228 209.265" stroke="#1ADCF0" stroke-miterlimit="1.5" stroke-linecap="round" stroke-linejoin="round"/>
<path d="M929.229 290.295L1069.61 209.265" stroke="#1ADCF0" stroke-miterlimit="1.5" stroke-linecap="round" stroke-linejoin="round"/>
<path d="M907.702 302.719L929.228 290.295L1139.8 411.839L999.418 492.869" stroke="#1ADCF0" stroke-miterlimit="1.5" stroke-linecap="round" stroke-linejoin="round"/>
<path d="M929.229 371.324L1069.61 452.354" stroke="#1ADCF0" stroke-miterlimit="1.5" stroke-linecap="round" stroke-linejoin="round"/>
<path d="M19.4912 329.751L87.3969 290.552L304.587 415.919L339.682 395.662L385.256 421.967L402.802 411.838L454.462 441.657" stroke="#1ADCF0" stroke-miterlimit="1.5" stroke-linecap="round" stroke-linejoin="round"/>
<path d="M228.39 371.936L300.358 330.397" stroke="#1ADCF0" stroke-miterlimit="1.5" stroke-linecap="round" stroke-linejoin="round"/>
<path d="M157.034 330.75L298.114 249.315L228.48 209.119L159.364 249.011" stroke="#1ADCF0" stroke-miterlimit="1.5" stroke-linecap="round" stroke-linejoin="round"/>
<path d="M298.114 249.315L361.193 212.904" stroke="#1ADCF0" stroke-miterlimit="1.5" stroke-linecap="round" stroke-linejoin="round"/>
<path d="M407.899 408.897L420.349 401.709L472.01 431.529" stroke="#1ADCF0" stroke-miterlimit="1.5" stroke-linecap="round" stroke-linejoin="round"/>
<path d="M320.67 364.43L385.46 401.828L402.803 391.819L420.146 401.828L437.691 391.699L489.352 421.519" stroke="#1ADCF0" stroke-miterlimit="1.5" stroke-linecap="round" stroke-linejoin="round"/>
<path d="M385.256 421.97L455.239 381.572L507.883 411.958" stroke="#1ADCF0" stroke-miterlimit="1.5" stroke-linecap="round" stroke-linejoin="round"/>
<path d="M419.071 463.222L385.256 482.74" stroke="#1ADCF0" stroke-miterlimit="1.5" stroke-linecap="round" stroke-linejoin="round"/>
<path d="M402.801 492.869L436.62 473.351" stroke="#1ADCF0" stroke-miterlimit="1.5" stroke-linecap="round" stroke-linejoin="round"/>
<path d="M420.351 502.997L455.445 482.74" stroke="#1ADCF0" stroke-miterlimit="1.5" stroke-linecap="round" stroke-linejoin="round"/>
<path d="M437.899 513.126L472.994 492.869" stroke="#1ADCF0" stroke-miterlimit="1.5" stroke-linecap="round" stroke-linejoin="round"/>
<path d="M455.445 523.255L490.54 502.998" stroke="#1ADCF0" stroke-miterlimit="1.5" stroke-linecap="round" stroke-linejoin="round"/>
<path d="M472.994 533.384L508.089 513.126" stroke="#1ADCF0" stroke-miterlimit="1.5" stroke-linecap="round" stroke-linejoin="round"/>
<path d="M490.54 543.512L525.634 523.255" stroke="#1ADCF0" stroke-miterlimit="1.5" stroke-linecap="round" stroke-linejoin="round"/>
<path d="M507.849 553.503L542.943 533.246" stroke="#1ADCF0" stroke-miterlimit="1.5" stroke-linecap="round" stroke-linejoin="round"/>
<path d="M525.688 563.739L560.782 543.481" stroke="#1ADCF0" stroke-miterlimit="1.5" stroke-linecap="round" stroke-linejoin="round"/>
<path d="M737.8 463.038L771.616 482.556" stroke="#1ADCF0" stroke-miterlimit="1.5" stroke-linecap="round" stroke-linejoin="round"/>
<path d="M754.07 492.685L720.251 473.167" stroke="#1ADCF0" stroke-miterlimit="1.5" stroke-linecap="round" stroke-linejoin="round"/>
<path d="M736.521 502.814L701.426 482.556" stroke="#1ADCF0" stroke-miterlimit="1.5" stroke-linecap="round" stroke-linejoin="round"/>
<path d="M718.972 512.942L683.877 492.685" stroke="#1ADCF0" stroke-miterlimit="1.5" stroke-linecap="round" stroke-linejoin="round"/>
<path d="M701.426 523.071L666.332 502.813" stroke="#1ADCF0" stroke-miterlimit="1.5" stroke-linecap="round" stroke-linejoin="round"/>
<path d="M683.877 533.2L648.782 512.942" stroke="#1ADCF0" stroke-miterlimit="1.5" stroke-linecap="round" stroke-linejoin="round"/>
<path d="M666.332 543.328L631.237 523.071" stroke="#1ADCF0" stroke-miterlimit="1.5" stroke-linecap="round" stroke-linejoin="round"/>
<path d="M649.022 553.319L613.928 533.062" stroke="#1ADCF0" stroke-miterlimit="1.5" stroke-linecap="round" stroke-linejoin="round"/>
<path d="M631.185 563.555L596.09 543.297" stroke="#1ADCF0" stroke-miterlimit="1.5" stroke-linecap="round" stroke-linejoin="round"/>
<path d="M857.309 332.562L795.465 296.867" stroke="#1ADCF0" stroke-miterlimit="1.5" stroke-linecap="round" stroke-linejoin="round"/>
<path fill-rule="evenodd" clip-rule="evenodd" d="M222.129 450.876C225.518 450.179 229.242 450.179 232.631 450.876H243.134V457.572C243.134 459.889 241.593 462.219 238.512 464C232.377 467.536 222.397 467.536 216.248 464C213.167 462.219 211.641 459.889 211.641 457.572V450.876H222.129Z" fill="url(#paint0_linear)"/>
<path d="M216.219 457.298C222.37 460.849 232.342 460.849 238.493 457.298C244.643 453.748 244.643 447.992 238.493 444.442C232.342 440.891 222.37 440.891 216.219 444.442C210.069 447.992 210.069 453.748 216.219 457.298Z" fill="#0AFFFF"/>
<path fill-rule="evenodd" clip-rule="evenodd" d="M222.128 440.971C225.517 440.274 229.241 440.274 232.63 440.971H243.133V447.667C243.133 449.984 241.593 452.314 238.512 454.095C232.376 457.631 222.396 457.631 216.248 454.095C213.167 452.314 211.64 449.984 211.64 447.667V440.971H222.128Z" fill="url(#paint1_linear)"/>
<path d="M216.218 447.393C222.369 450.943 232.341 450.943 238.492 447.393C244.642 443.842 244.642 438.086 238.492 434.536C232.341 430.986 222.369 430.986 216.218 434.536C210.068 438.086 210.068 443.842 216.218 447.393Z" fill="#0AFFFF"/>
<path fill-rule="evenodd" clip-rule="evenodd" d="M222.129 431.273C225.518 430.576 229.242 430.576 232.631 431.273H243.134V437.969C243.134 440.286 241.593 442.616 238.512 444.397C232.377 447.933 222.397 447.933 216.248 444.397C213.167 442.616 211.641 440.286 211.641 437.969V431.273H222.129Z" fill="url(#paint2_linear)"/>
<path d="M216.219 437.695C222.37 441.245 232.342 441.245 238.493 437.695C244.643 434.145 244.643 428.389 238.493 424.838C232.342 421.288 222.37 421.288 216.219 424.838C210.069 428.389 210.069 434.145 216.219 437.695Z" fill="url(#paint3_linear)"/>
<path fill-rule="evenodd" clip-rule="evenodd" d="M101.207 325.139L157.04 292.919L212.863 325.139L157.03 357.359L101.207 325.139Z" fill="url(#paint4_linear)"/>
<path d="M137.477 312.245L114.297 325.831" stroke="#00306A" stroke-miterlimit="1.5" stroke-linecap="round"/>
<path d="M130.418 321.495L118.753 328.206" stroke="#00306A" stroke-miterlimit="1.5" stroke-linecap="round"/>
<path fill-rule="evenodd" clip-rule="evenodd" d="M157.03 363.144L212.863 330.924V325.135L157.03 357.354V363.144Z" fill="#002A5D"/>
<path fill-rule="evenodd" clip-rule="evenodd" d="M157.039 363.144L101.216 330.924V325.135L157.039 357.354V363.144Z" fill="#00306A"/>
<path fill-rule="evenodd" clip-rule="evenodd" d="M172.667 366.22L228.5 334L284.322 366.22L228.49 398.44L172.667 366.22Z" fill="url(#paint5_linear)"/>
<path d="M208.957 353.498L185.777 367.083" stroke="#0654C0" stroke-miterlimit="1.5" stroke-linecap="round"/>
<path d="M201.898 362.744L190.233 369.456" stroke="#0654C0" stroke-miterlimit="1.5" stroke-linecap="round"/>
<path fill-rule="evenodd" clip-rule="evenodd" d="M228.51 404.396L284.343 372.176V366.387L228.51 398.607V404.396Z" fill="#063A79"/>
<path fill-rule="evenodd" clip-rule="evenodd" d="M228.519 404.396L172.696 372.176V366.387L228.519 398.607V404.396Z" fill="#004293"/>
<path fill-rule="evenodd" clip-rule="evenodd" d="M242.291 326.212L298.124 293.992L353.947 326.212L298.114 358.431L242.291 326.212Z" fill="url(#paint6_linear)"/>
<path d="M278.561 313.318L255.381 326.904" stroke="#00306A" stroke-miterlimit="1.5" stroke-linecap="round"/>
<path d="M271.502 322.562L259.837 329.274" stroke="#00306A" stroke-miterlimit="1.5" stroke-linecap="round"/>
<path fill-rule="evenodd" clip-rule="evenodd" d="M298.114 364.217L353.947 331.997V326.207L298.114 358.427V364.217Z" fill="#002A5D"/>
<path fill-rule="evenodd" clip-rule="evenodd" d="M298.123 364.217L242.3 331.997V326.207L298.123 358.427V364.217Z" fill="#00306A"/>
<path fill-rule="evenodd" clip-rule="evenodd" d="M312.42 366.684L368.254 334.464L424.076 366.684L368.244 398.904L312.42 366.684Z" fill="url(#paint7_linear)"/>
<path d="M348.69 353.791L325.51 367.376" stroke="#00306A" stroke-miterlimit="1.5" stroke-linecap="round"/>
<path d="M341.631 363.034L329.966 369.746" stroke="#00306A" stroke-miterlimit="1.5" stroke-linecap="round"/>
<path fill-rule="evenodd" clip-rule="evenodd" d="M368.244 404.689L424.076 372.469V366.68L368.244 398.9V404.689Z" fill="#002A5D"/>
<path fill-rule="evenodd" clip-rule="evenodd" d="M368.252 404.689L312.429 372.469V366.68L368.252 398.9V404.689Z" fill="#00306A"/>
<path fill-rule="evenodd" clip-rule="evenodd" d="M129.569 394.683L157.03 378.836L184.486 394.683L157.025 410.53L129.569 394.683Z" fill="url(#paint8_linear)"/>
<path d="M147.41 388.414L136.009 395.095" stroke="#00306A" stroke-miterlimit="1.5" stroke-linecap="round"/>
<path d="M143.939 392.871L138.202 396.172" stroke="#00306A" stroke-miterlimit="1.5" stroke-linecap="round"/>
<path fill-rule="evenodd" clip-rule="evenodd" d="M157.025 427.796L184.486 411.949V394.681L157.025 410.528V427.796Z" fill="#002A5D"/>
<path fill-rule="evenodd" clip-rule="evenodd" d="M157.03 427.796L129.574 411.949V394.681L157.03 410.528V427.796Z" fill="#00306A"/>
<path fill-rule="evenodd" clip-rule="evenodd" d="M271.637 235.227L299.098 219.38L326.553 235.227L299.093 251.074L271.637 235.227Z" fill="url(#paint9_linear)"/>
<path d="M289.478 228.959L278.077 235.641" stroke="#00306A" stroke-miterlimit="1.5" stroke-linecap="round"/>
<path d="M286.006 233.417L280.269 236.718" stroke="#00306A" stroke-miterlimit="1.5" stroke-linecap="round"/>
<path fill-rule="evenodd" clip-rule="evenodd" d="M299.092 268.341L326.553 252.494V235.225L299.092 251.072V268.341Z" fill="#002A5D"/>
<path fill-rule="evenodd" clip-rule="evenodd" d="M299.097 268.341L271.641 252.494V235.225L299.097 251.072V268.341Z" fill="#00306A"/>
<path fill-rule="evenodd" clip-rule="evenodd" d="M130.838 234.998L158.299 219.151L185.754 234.998L158.294 250.845L130.838 234.998Z" fill="url(#paint10_linear)"/>
<path d="M148.679 228.73L137.278 235.412" stroke="#00306A" stroke-miterlimit="1.5" stroke-linecap="round"/>
<path d="M145.202 233.188L139.465 236.489" stroke="#00306A" stroke-miterlimit="1.5" stroke-linecap="round"/>
<path fill-rule="evenodd" clip-rule="evenodd" d="M158.294 268.112L185.754 252.265V234.997L158.294 250.843V268.112Z" fill="#002A5D"/>
<path fill-rule="evenodd" clip-rule="evenodd" d="M158.298 268.112L130.842 252.265V234.997L158.298 250.843V268.112Z" fill="#00306A"/>
<path fill-rule="evenodd" clip-rule="evenodd" d="M762.233 281.17L789.694 265.323L817.15 281.17L789.689 297.017L762.233 281.17Z" fill="url(#paint11_linear)"/>
<path d="M780.074 274.902L768.673 281.584" stroke="#00306A" stroke-miterlimit="1.5" stroke-linecap="round"/>
<path d="M776.598 279.36L770.86 282.661" stroke="#00306A" stroke-miterlimit="1.5" stroke-linecap="round"/>
<path fill-rule="evenodd" clip-rule="evenodd" d="M789.689 314.283L817.15 298.436V281.168L789.689 297.015V314.283Z" fill="#002A5D"/>
<path fill-rule="evenodd" clip-rule="evenodd" d="M789.694 314.283L762.238 298.436V281.168L789.694 297.015V314.283Z" fill="#00306A"/>
<path fill-rule="evenodd" clip-rule="evenodd" d="M838.156 398.153L865.617 382.306L893.072 398.153L865.612 414L838.156 398.153Z" fill="url(#paint12_linear)"/>
<path d="M856.002 391.883L844.601 398.565" stroke="#00306A" stroke-miterlimit="1.5" stroke-linecap="round"/>
<path d="M852.526 396.341L846.788 399.642" stroke="#00306A" stroke-miterlimit="1.5" stroke-linecap="round"/>
<path fill-rule="evenodd" clip-rule="evenodd" d="M865.612 431.266L893.072 415.419V398.151L865.612 413.998V431.266Z" fill="#002A5D"/>
<path fill-rule="evenodd" clip-rule="evenodd" d="M865.616 431.266L838.161 415.419V398.151L865.616 413.998V431.266Z" fill="#00306A"/>
<path fill-rule="evenodd" clip-rule="evenodd" d="M1041.47 276.01L1068.93 260.164L1096.39 276.01L1068.93 291.857L1041.47 276.01Z" fill="url(#paint13_linear)"/>
<path d="M1059.31 269.744L1047.91 276.426" stroke="#00306A" stroke-miterlimit="1.5" stroke-linecap="round"/>
<path d="M1055.84 274.2L1050.1 277.501" stroke="#00306A" stroke-miterlimit="1.5" stroke-linecap="round"/>
<path fill-rule="evenodd" clip-rule="evenodd" d="M1068.93 309.124L1096.39 293.277V276.009L1068.93 291.856V309.124Z" fill="#002A5D"/>
<path fill-rule="evenodd" clip-rule="evenodd" d="M1068.93 309.124L1041.47 293.277V276.009L1068.93 291.856V309.124Z" fill="#00306A"/>
<path fill-rule="evenodd" clip-rule="evenodd" d="M312.344 204L368.178 171.78L424 204L368.167 236.22L312.344 204Z" fill="url(#paint14_linear)"/>
<path d="M348.69 191.124L325.51 204.709" stroke="#0654C0" stroke-miterlimit="1.5" stroke-linecap="round"/>
<path d="M341.632 200.364L329.967 207.076" stroke="#0654C0" stroke-miterlimit="1.5" stroke-linecap="round"/>
<path fill-rule="evenodd" clip-rule="evenodd" d="M368.244 242.019L424.077 209.799V204.01L368.244 236.229V242.019Z" fill="#063A79"/>
<path fill-rule="evenodd" clip-rule="evenodd" d="M368.253 242.019L312.43 209.799V204.01L368.253 236.229V242.019Z" fill="#004293"/>
<path fill-rule="evenodd" clip-rule="evenodd" d="M1013.52 447.523L1069.36 415.303L1125.18 447.523L1069.35 479.743L1013.52 447.523Z" fill="url(#paint15_linear)"/>
<path d="M1049.79 434.627L1026.61 448.213" stroke="#00306A" stroke-miterlimit="1.5" stroke-linecap="round"/>
<path d="M1042.74 443.874L1031.07 450.585" stroke="#00306A" stroke-miterlimit="1.5" stroke-linecap="round"/>
<path fill-rule="evenodd" clip-rule="evenodd" d="M1069.35 485.528L1125.18 453.309V447.519L1069.35 479.739V485.528Z" fill="#002A5D"/>
<path fill-rule="evenodd" clip-rule="evenodd" d="M1069.36 485.528L1013.53 453.309V447.519L1069.36 479.739V485.528Z" fill="#00306A"/>
<path fill-rule="evenodd" clip-rule="evenodd" d="M945 487.219L1000.83 455L1056.66 487.219L1000.82 519.439L945 487.219Z" fill="url(#paint16_linear)"/>
<path d="M981.215 474.208L958.035 487.793" stroke="#0654C0" stroke-miterlimit="1.5" stroke-linecap="round"/>
<path d="M974.145 483.448L962.48 490.16" stroke="#0654C0" stroke-miterlimit="1.5" stroke-linecap="round"/>
<path fill-rule="evenodd" clip-rule="evenodd" d="M1000.76 525.106L1056.59 492.886V487.097L1000.76 519.317V525.106Z" fill="#063A79"/>
<path fill-rule="evenodd" clip-rule="evenodd" d="M1000.76 525.106L944.941 492.886V487.097L1000.76 519.317V525.106Z" fill="#004293"/>
<path fill-rule="evenodd" clip-rule="evenodd" d="M1013.52 367.292L1069.36 335.072L1125.18 367.292L1069.35 399.512L1013.52 367.292Z" fill="url(#paint17_linear)"/>
<path d="M1049.79 354.399L1026.61 367.984" stroke="#00306A" stroke-miterlimit="1.5" stroke-linecap="round"/>
<path d="M1042.74 363.642L1031.07 370.354" stroke="#00306A" stroke-miterlimit="1.5" stroke-linecap="round"/>
<path fill-rule="evenodd" clip-rule="evenodd" d="M1069.35 405.298L1125.18 373.078V367.288L1069.35 399.508V405.298Z" fill="#002A5D"/>
<path fill-rule="evenodd" clip-rule="evenodd" d="M1069.36 405.298L1013.53 373.078V367.288L1069.36 399.508V405.298Z" fill="#00306A"/>
<path fill-rule="evenodd" clip-rule="evenodd" d="M1083 407.5L1138.83 375.28L1194.66 407.5L1138.82 439.72L1083 407.5Z" fill="url(#paint18_linear)"/>
<path d="M1119.3 394.517L1096.12 408.103" stroke="#0654C0" stroke-miterlimit="1.5" stroke-linecap="round"/>
<path d="M1112.23 403.758L1100.56 410.469" stroke="#0654C0" stroke-miterlimit="1.5" stroke-linecap="round"/>
<path fill-rule="evenodd" clip-rule="evenodd" d="M1138.84 445.413L1194.67 413.193V407.403L1138.84 439.623V445.413Z" fill="#063A79"/>
<path fill-rule="evenodd" clip-rule="evenodd" d="M1138.85 445.413L1083.02 413.193V407.403L1138.85 439.623V445.413Z" fill="#004293"/>
<path fill-rule="evenodd" clip-rule="evenodd" d="M873.153 286.279L928.987 254.059L984.809 286.279L928.976 318.499L873.153 286.279Z" fill="url(#paint19_linear)"/>
<path d="M909.424 273.385L886.243 286.971" stroke="#00306A" stroke-miterlimit="1.5" stroke-linecap="round"/>
<path d="M902.365 282.629L890.7 289.341" stroke="#00306A" stroke-miterlimit="1.5" stroke-linecap="round"/>
<path fill-rule="evenodd" clip-rule="evenodd" d="M928.977 324.284L984.81 292.064V286.275L928.977 318.495V324.284Z" fill="#002A5D"/>
<path fill-rule="evenodd" clip-rule="evenodd" d="M928.986 324.284L873.163 292.064V286.275L928.986 318.495V324.284Z" fill="#00306A"/>
<path fill-rule="evenodd" clip-rule="evenodd" d="M922.933 370.514C926.322 369.818 930.046 369.818 933.435 370.514H943.938V377.21C943.938 379.527 942.397 381.857 939.316 383.638C933.181 387.174 923.201 387.174 917.053 383.638C913.972 381.857 912.445 379.527 912.445 377.21V370.514H922.933Z" fill="url(#paint20_linear)"/>
<path d="M917.024 376.937C923.175 380.487 933.147 380.487 939.298 376.937C945.448 373.387 945.448 367.631 939.298 364.08C933.147 360.53 923.175 360.53 917.024 364.08C910.874 367.631 910.874 373.387 917.024 376.937Z" fill="#0AFFFF"/>
<path fill-rule="evenodd" clip-rule="evenodd" d="M922.933 360.609C926.322 359.913 930.046 359.913 933.435 360.609H943.938V367.305C943.938 369.622 942.397 371.952 939.316 373.734C933.181 377.269 923.201 377.269 917.053 373.734C913.972 371.952 912.445 369.622 912.445 367.305V360.609H922.933Z" fill="url(#paint21_linear)"/>
<path d="M917.023 367.031C923.174 370.582 933.146 370.582 939.297 367.031C945.448 363.481 945.448 357.725 939.297 354.175C933.146 350.625 923.174 350.625 917.023 354.175C910.873 357.725 910.873 363.481 917.023 367.031Z" fill="#0AFFFF"/>
<path fill-rule="evenodd" clip-rule="evenodd" d="M922.933 350.911C926.322 350.215 930.046 350.215 933.435 350.911H943.938V357.608C943.938 359.924 942.397 362.255 939.316 364.036C933.181 367.572 923.201 367.572 917.053 364.036C913.972 362.255 912.445 359.924 912.445 357.608V350.911H922.933Z" fill="url(#paint22_linear)"/>
<path d="M917.023 357.333C923.174 360.884 933.146 360.884 939.297 357.333C945.448 353.783 945.448 348.027 939.297 344.477C933.146 340.927 923.174 340.927 917.023 344.477C910.873 348.027 910.873 353.783 917.023 357.333Z" fill="url(#paint23_linear)"/>
<path fill-rule="evenodd" clip-rule="evenodd" d="M1066.66 207.013C1069.24 206.482 1072.08 206.482 1074.66 207.013H1082.67V212.116C1082.67 213.882 1081.49 215.658 1079.15 217.016C1074.47 219.71 1066.86 219.71 1062.18 217.016C1059.83 215.658 1058.67 213.882 1058.67 212.116V207.013H1066.66Z" fill="url(#paint24_linear)"/>
<path d="M1062.16 211.907C1066.84 214.613 1074.44 214.613 1079.13 211.907C1083.82 209.202 1083.82 204.815 1079.13 202.109C1074.44 199.403 1066.84 199.403 1062.16 202.109C1057.47 204.815 1057.47 209.202 1062.16 211.907Z" fill="#0AFFFF"/>
<path fill-rule="evenodd" clip-rule="evenodd" d="M1066.66 199.463C1069.24 198.933 1072.08 198.933 1074.66 199.463H1082.67V204.567C1082.67 206.333 1081.49 208.109 1079.15 209.466C1074.47 212.161 1066.86 212.161 1062.18 209.466C1059.83 208.109 1058.67 206.333 1058.67 204.567V199.463H1066.66Z" fill="url(#paint25_linear)"/>
<path d="M1062.16 204.358C1066.84 207.064 1074.44 207.064 1079.13 204.358C1083.82 201.653 1083.82 197.266 1079.13 194.56C1074.44 191.854 1066.84 191.854 1062.16 194.56C1057.47 197.266 1057.47 201.653 1062.16 204.358Z" fill="#0AFFFF"/>
<path fill-rule="evenodd" clip-rule="evenodd" d="M1066.66 192.073C1069.24 191.542 1072.08 191.542 1074.66 192.073H1082.67V197.176C1082.67 198.942 1081.49 200.718 1079.15 202.075C1074.47 204.77 1066.86 204.77 1062.18 202.075C1059.83 200.718 1058.67 198.942 1058.67 197.176V192.073H1066.66Z" fill="url(#paint26_linear)"/>
<path d="M1062.16 196.967C1066.84 199.673 1074.44 199.673 1079.13 196.967C1083.82 194.261 1083.82 189.874 1079.13 187.169C1074.44 184.463 1066.84 184.463 1062.16 187.169C1057.47 189.874 1057.47 194.261 1062.16 196.967Z" fill="url(#paint27_linear)"/>
<path fill-rule="evenodd" clip-rule="evenodd" d="M923.636 208.96C926.908 208.288 930.504 208.288 933.776 208.96H943.917V215.426C943.917 217.663 942.43 219.913 939.455 221.633C933.531 225.047 923.895 225.047 917.958 221.633C914.983 219.913 913.509 217.663 913.509 215.426V208.96H923.636Z" fill="url(#paint28_linear)"/>
<path d="M917.929 215.161C923.868 218.589 933.497 218.589 939.436 215.161C945.375 211.733 945.375 206.176 939.436 202.747C933.497 199.319 923.868 199.319 917.929 202.747C911.991 206.176 911.991 211.733 917.929 215.161Z" fill="#0AFFFF"/>
<path fill-rule="evenodd" clip-rule="evenodd" d="M923.636 199.396C926.909 198.724 930.504 198.724 933.777 199.396H943.918V205.862C943.918 208.099 942.43 210.349 939.455 212.069C933.532 215.483 923.895 215.483 917.958 212.069C914.984 210.349 913.509 208.099 913.509 205.862V199.396H923.636Z" fill="url(#paint29_linear)"/>
<path d="M917.93 205.598C923.869 209.026 933.498 209.026 939.437 205.598C945.376 202.17 945.376 196.612 939.437 193.184C933.498 189.756 923.869 189.756 917.93 193.184C911.991 196.612 911.991 202.17 917.93 205.598Z" fill="#0AFFFF"/>
<path fill-rule="evenodd" clip-rule="evenodd" d="M923.636 190.032C926.909 189.36 930.504 189.36 933.777 190.032H943.918V196.498C943.918 198.735 942.43 200.985 939.455 202.705C933.532 206.119 923.895 206.119 917.958 202.705C914.984 200.985 913.509 198.735 913.509 196.498V190.032H923.636Z" fill="url(#paint30_linear)"/>
<path d="M917.93 196.234C923.869 199.662 933.498 199.662 939.437 196.234C945.376 192.806 945.376 187.248 939.437 183.82C933.498 180.392 923.869 180.392 917.93 183.82C911.991 187.248 911.991 192.806 917.93 196.234Z" fill="url(#paint31_linear)"/>
<path fill-rule="evenodd" clip-rule="evenodd" d="M12.514 328.922C14.9833 328.415 17.6965 328.415 20.1659 328.922H27.8185V333.801C27.8185 335.489 26.6961 337.187 24.4512 338.485C19.981 341.061 12.7094 341.061 8.22943 338.485C5.98458 337.187 4.87207 335.489 4.87207 333.801V328.922H12.514Z" fill="url(#paint32_linear)"/>
<path d="M8.20828 333.602C12.6898 336.189 19.9557 336.189 24.4372 333.602C28.9187 331.015 28.9187 326.821 24.4372 324.234C19.9557 321.647 12.6898 321.647 8.20828 324.234C3.72677 326.821 3.72677 331.015 8.20828 333.602Z" fill="#0AFFFF"/>
<path fill-rule="evenodd" clip-rule="evenodd" d="M12.514 321.706C14.9833 321.198 17.6965 321.198 20.1659 321.706H27.8185V326.585C27.8185 328.273 26.6961 329.971 24.4512 331.268C19.981 333.845 12.7094 333.845 8.22943 331.268C5.98458 329.971 4.87207 328.273 4.87207 326.585V321.706H12.514Z" fill="url(#paint33_linear)"/>
<path d="M8.20827 326.385C12.6898 328.972 19.9557 328.972 24.4372 326.385C28.9187 323.798 28.9187 319.604 24.4372 317.018C19.9557 314.431 12.6898 314.431 8.20827 317.018C3.72677 319.604 3.72677 323.798 8.20827 326.385Z" fill="#0AFFFF"/>
<path fill-rule="evenodd" clip-rule="evenodd" d="M12.514 314.64C14.9833 314.132 17.6965 314.132 20.1659 314.64H27.8185V319.519C27.8185 321.207 26.6961 322.905 24.4512 324.202C19.981 326.778 12.7094 326.778 8.22943 324.202C5.98458 322.905 4.87207 321.207 4.87207 319.519V314.64H12.514Z" fill="url(#paint34_linear)"/>
<path d="M8.20779 319.319C12.6893 321.905 19.9552 321.905 24.4367 319.319C28.9182 316.732 28.9182 312.538 24.4367 309.951C19.9552 307.364 12.6893 307.364 8.20779 309.951C3.72628 312.538 3.72628 316.732 8.20779 319.319Z" fill="url(#paint35_linear)"/>
<path fill-rule="evenodd" clip-rule="evenodd" d="M223.123 207.583C225.832 207.027 228.809 207.027 231.518 207.583H239.913V212.936C239.913 214.788 238.682 216.651 236.219 218.074C231.315 220.901 223.337 220.901 218.423 218.074C215.96 216.651 214.739 214.788 214.739 212.936V207.583H223.123Z" fill="url(#paint36_linear)"/>
<path d="M218.4 212.717C223.316 215.555 231.287 215.555 236.204 212.717C241.121 209.879 241.121 205.278 236.204 202.44C231.287 199.602 223.316 199.602 218.4 202.44C213.483 205.278 213.483 209.879 218.4 212.717Z" fill="#0AFFFF"/>
<path fill-rule="evenodd" clip-rule="evenodd" d="M223.123 199.666C225.832 199.109 228.809 199.109 231.518 199.666H239.913V205.018C239.913 206.87 238.682 208.733 236.219 210.157C231.315 212.983 223.337 212.983 218.423 210.157C215.96 208.733 214.739 206.87 214.739 205.018V199.666H223.123Z" fill="url(#paint37_linear)"/>
<path d="M218.4 204.799C223.317 207.637 231.288 207.637 236.204 204.799C241.121 201.961 241.121 197.36 236.204 194.522C231.288 191.684 223.317 191.684 218.4 194.522C213.483 197.36 213.483 201.961 218.4 204.799Z" fill="#0AFFFF"/>
<path fill-rule="evenodd" clip-rule="evenodd" d="M223.123 191.914C225.832 191.357 228.809 191.357 231.518 191.914H239.913V197.266C239.913 199.118 238.682 200.981 236.219 202.405C231.315 205.231 223.337 205.231 218.423 202.405C215.96 200.981 214.739 199.118 214.739 197.266V191.914H223.123Z" fill="url(#paint38_linear)"/>
<path d="M218.4 197.047C223.316 199.885 231.287 199.885 236.204 197.047C241.121 194.209 241.121 189.608 236.204 186.77C231.287 183.932 223.316 183.932 218.4 186.77C213.483 189.608 213.483 194.209 218.4 197.047Z" fill="url(#paint39_linear)"/>
<path fill-rule="evenodd" clip-rule="evenodd" d="M400.356 452.377L578.328 349.65L756.26 452.34L578.328 555.067L400.356 452.377Z" fill="url(#paint40_linear)"/>
<path fill-rule="evenodd" clip-rule="evenodd" d="M578.556 0V349.526L400.337 452.39L400.599 102.714L578.556 0Z" fill="url(#paint41_linear)"/>
<path fill-rule="evenodd" clip-rule="evenodd" d="M577.895 5.28613L577.895 349.526L756.114 452.389L755.852 108L577.895 5.28613Z" fill="url(#paint42_linear)"/>
<path fill-rule="evenodd" clip-rule="evenodd" d="M490.934 504.697L490.975 452.32L578.279 502.724L578.294 555.123C493.054 505.924 484.037 500.717 490.934 504.697ZM570.414 507.994L574.988 510.632V553.21L570.414 550.569V507.994ZM567.506 506.314V548.892L563.547 546.607V504.029L567.506 506.314ZM560.639 502.352V544.927L556.681 542.642V500.068L560.639 502.352ZM553.773 498.387V540.965L549.81 538.681V496.103L553.773 498.387ZM546.906 494.426V537L542.944 534.715V492.141L546.906 494.426ZM540.036 490.461V533.039L536.077 530.754V488.176L540.036 490.461ZM533.169 486.499V529.073L529.211 526.789V484.214L533.169 486.499ZM526.303 482.534V525.112L522.344 522.827V480.249L526.303 482.534ZM519.436 478.572V521.15L515.474 518.862V476.288L519.436 478.572ZM512.566 474.611V517.185L508.607 514.901V472.323L512.566 474.611ZM505.699 470.646V513.224L501.74 510.935V468.361L505.699 470.646ZM498.832 466.684V509.259L494.334 506.663V464.088L498.832 466.684Z" fill="url(#paint43_linear)"/>
<path fill-rule="evenodd" clip-rule="evenodd" d="M665.63 504.637L665.582 452.32L578.279 502.724L578.271 555.059L665.63 504.637ZM586.143 507.994L581.569 510.632V553.168L586.143 550.527V507.994ZM589.051 506.314V548.851L593.01 546.566V504.029L589.051 506.314ZM595.918 502.352V544.885L599.876 542.601V500.068L595.918 502.352ZM602.784 498.387V540.924L606.743 538.639V496.103L602.784 498.387ZM609.651 494.426V536.959L613.609 534.674V492.141L609.651 494.426ZM616.517 490.461V532.997L620.48 530.713V488.176L616.517 490.461ZM623.384 486.499V529.032L627.346 526.748V484.214L623.384 486.499ZM630.254 482.534V525.071L634.213 522.786V480.249L630.254 482.534ZM637.121 478.572V521.105L641.08 518.821V476.288L637.121 478.572ZM643.988 474.611V517.144L647.946 514.859V472.323L643.988 474.611ZM650.854 470.646V513.179L654.817 510.894V468.361L650.854 470.646ZM657.725 466.684V509.217L662.22 506.621V464.088L657.725 466.684Z" fill="url(#paint44_linear)"/>
<path fill-rule="evenodd" clip-rule="evenodd" d="M490.977 452.315L578.272 402.008L665.582 452.315L578.272 502.72L490.977 452.315Z" fill="#003577"/>
<path fill-rule="evenodd" clip-rule="evenodd" d="M501.26 452.322L578.278 407.937L655.309 452.322L578.278 496.792L501.26 452.322Z" fill="url(#paint45_linear)"/>
<path fill-rule="evenodd" clip-rule="evenodd" d="M578.309 495.687L491.011 445.296V419.056L578.309 469.428V495.687Z" fill="#004293"/>
<path fill-rule="evenodd" clip-rule="evenodd" d="M578.273 495.684L665.629 445.254V419.015L578.273 469.444V495.684Z" fill="#063A79"/>
<path d="M498.572 440.666C499.56 441.236 500.384 440.792 500.414 439.675C500.444 438.558 499.668 437.191 498.681 436.621C497.694 436.051 496.869 436.495 496.839 437.612C496.809 438.728 497.585 440.096 498.572 440.666Z" stroke="#14F6FF" stroke-miterlimit="1.5" stroke-linecap="round"/>
<path d="M506.128 445.027C507.116 445.597 507.941 445.154 507.971 444.037C508.001 442.92 507.225 441.553 506.237 440.983C505.25 440.413 504.425 440.856 504.395 441.973C504.365 443.09 505.141 444.457 506.128 445.027Z" stroke="#14F6FF" stroke-miterlimit="1.5" stroke-linecap="round"/>
<path d="M513.929 449.53C514.916 450.1 515.741 449.656 515.771 448.539C515.801 447.423 515.025 446.055 514.038 445.485C513.05 444.916 512.226 445.359 512.196 446.476C512.165 447.593 512.941 448.96 513.929 449.53Z" stroke="#14F6FF" stroke-miterlimit="1.5" stroke-linecap="round"/>
<path d="M662.133 429.984L659.225 431.713" stroke="#14F6FF" stroke-miterlimit="1.5" stroke-linecap="round"/>
<path d="M662.133 434.26L659.225 435.989" stroke="#14F6FF" stroke-miterlimit="1.5" stroke-linecap="round"/>
<path d="M662.133 438.574L659.225 440.303" stroke="#14F6FF" stroke-miterlimit="1.5" stroke-linecap="round"/>
<path d="M662.133 442.85L659.225 444.579" stroke="#14F6FF" stroke-miterlimit="1.5" stroke-linecap="round"/>
<path d="M586.012 473.223L596.735 473.102L596.715 478.423L585.991 478.545L586.012 473.223Z" fill="#14F6FF"/>
<path fill-rule="evenodd" clip-rule="evenodd" d="M585.988 479.304L585.968 484.626L589.782 480.275L589.786 479.261L585.988 479.304Z" fill="#14F6FF"/>
<path fill-rule="evenodd" clip-rule="evenodd" d="M596.738 472.341L596.759 467.02L592.944 471.371L592.94 472.384L596.738 472.341Z" fill="#14F6FF"/>
<path fill-rule="evenodd" clip-rule="evenodd" d="M490.977 419.025L578.272 368.718L665.582 419.025L578.272 469.43L490.977 419.025Z" fill="#0069D2"/>
<path fill-rule="evenodd" clip-rule="evenodd" d="M508.41 419.038L578.281 378.772L648.165 419.038L578.281 459.383L508.41 419.038Z" fill="#003577"/>
<path fill-rule="evenodd" clip-rule="evenodd" d="M503.688 419.033L578.275 376.049L652.876 419.033L578.275 462.1L503.688 419.033Z" fill="#003577"/>
<path fill-rule="evenodd" clip-rule="evenodd" d="M511.415 419.041L578.291 380.5L645.179 419.041L578.291 457.656L511.415 419.041Z" fill="url(#paint46_linear)"/>
<path fill-rule="evenodd" clip-rule="evenodd" d="M437.904 209.268L578.272 128.229L718.656 209.268L578.272 290.29L437.904 209.268Z" fill="#0069D2"/>
<path fill-rule="evenodd" clip-rule="evenodd" d="M437.903 209.268V371.329L578.271 452.351V290.307L437.903 209.268Z" fill="#004293"/>
<path fill-rule="evenodd" clip-rule="evenodd" d="M718.684 209.269L718.701 371.33L578.3 452.369V290.292L718.684 209.269Z" fill="#063A79"/>
<path fill-rule="evenodd" clip-rule="evenodd" d="M578.327 146.935L702.451 218.606V361.917L578.327 433.558L454.174 361.917V218.606L578.327 146.935Z" fill="#1ADCF0"/>
<path fill-rule="evenodd" clip-rule="evenodd" d="M454.192 361.922L578.282 290.297V146.984L454.136 218.639L454.192 361.922Z" fill="url(#paint47_linear)"/>
<path fill-rule="evenodd" clip-rule="evenodd" d="M702.402 361.952L578.267 290.233V146.923L702.458 218.668L702.402 361.952Z" fill="url(#paint48_linear)"/>
<path fill-rule="evenodd" clip-rule="evenodd" d="M454.188 218.674L578.278 290.298V433.612L454.132 361.957L454.188 218.674Z" fill="url(#paint49_linear)"/>
<path fill-rule="evenodd" clip-rule="evenodd" d="M702.582 218.674L578.492 290.298V433.612L702.639 361.957L702.582 218.674Z" fill="url(#paint50_linear)"/>
<path fill-rule="evenodd" clip-rule="evenodd" d="M578.324 171.456L681.221 230.87V349.673L578.324 409.063L475.402 349.673V230.87L578.324 171.456Z" fill="white"/>
<path fill-rule="evenodd" clip-rule="evenodd" d="M578.332 156.395L694.259 223.332V357.18L578.332 424.09L462.377 357.18V223.332L578.332 156.395Z" fill="white" fill-opacity="0.4"/>
<path fill-rule="evenodd" clip-rule="evenodd" d="M578.33 164.56L687.2 227.422V353.122L578.33 415.959L469.435 353.122V227.422L578.33 164.56Z" fill="white" fill-opacity="0.4"/>
<path fill-rule="evenodd" clip-rule="evenodd" d="M484.4 236.116L578.263 181.926L672.136 236.116L578.263 290.295L484.4 236.116Z" stroke="#14F6FF" stroke-miterlimit="1.5" stroke-linecap="square"/>
<path fill-rule="evenodd" clip-rule="evenodd" d="M484.4 344.49L578.263 290.3L672.136 344.49L578.263 398.669L484.4 344.49Z" stroke="#14F6FF" stroke-miterlimit="1.5" stroke-linecap="square"/>
<path fill-rule="evenodd" clip-rule="evenodd" d="M672.154 236.116L672.166 344.485L578.281 398.674V290.295L672.154 236.116Z" stroke="#14F6FF" stroke-miterlimit="1.5" stroke-linecap="square"/>
<path fill-rule="evenodd" clip-rule="evenodd" d="M484.4 236.116V344.485L578.263 398.664V290.306L484.4 236.116Z" stroke="#14F6FF" stroke-miterlimit="1.5" stroke-linecap="square"/>
<path fill-rule="evenodd" clip-rule="evenodd" d="M578.278 290.302V290.298L657.161 244.764L657.169 335.832L578.278 381.37L499.395 335.836L499.403 335.832L499.395 335.829V244.768L578.278 290.298V290.302ZM499.395 244.764L578.278 199.23L657.161 244.764L578.278 290.298L499.395 244.764Z" stroke="#14F6FF" stroke-miterlimit="1.5" stroke-linecap="square" stroke-dasharray="5 5"/>
<path fill-rule="evenodd" clip-rule="evenodd" d="M519.021 256.113L578.246 221.921L637.478 256.113L578.246 290.299L519.021 256.113Z" fill="url(#paint51_linear)"/>
<path fill-rule="evenodd" clip-rule="evenodd" d="M637.509 256.115L637.516 324.493L578.277 358.685V290.3L637.509 256.115Z" fill="url(#paint52_linear)"/>
<path fill-rule="evenodd" clip-rule="evenodd" d="M519.021 256.113V324.491L578.246 358.677V290.306L519.021 256.113Z" fill="url(#paint53_linear)"/>
<path fill-rule="evenodd" clip-rule="evenodd" d="M515.273 229.689L532.507 219.74L549.742 229.689L532.507 239.636L515.273 229.689Z" fill="url(#paint54_linear)"/>
<path fill-rule="evenodd" clip-rule="evenodd" d="M576.507 214.153L591.742 205.358L606.978 214.153L591.742 222.947L576.507 214.153Z" fill="url(#paint55_linear)"/>
<path fill-rule="evenodd" clip-rule="evenodd" d="M540.505 252.819L551.395 246.532L562.287 252.819L551.395 259.105L540.505 252.819Z" fill="white"/>
<path fill-rule="evenodd" clip-rule="evenodd" d="M588.752 246.329L596.702 241.739L604.653 246.329L596.702 250.918L588.752 246.329Z" fill="url(#paint56_linear)"/>
<path fill-rule="evenodd" clip-rule="evenodd" d="M637.513 333.021L637.514 356.451L623.981 364.262V340.832L637.513 333.021Z" fill="url(#paint57_linear)"/>
<path fill-rule="evenodd" clip-rule="evenodd" d="M659.486 287.684L659.487 299.616L649.15 305.582V293.649L659.486 287.684Z" fill="url(#paint58_linear)"/>
<path fill-rule="evenodd" clip-rule="evenodd" d="M654.321 317.545L654.321 324.501L648.295 327.979V321.022L654.321 317.545Z" fill="url(#paint59_linear)"/>
<path fill-rule="evenodd" clip-rule="evenodd" d="M611.179 298.674L611.18 305.629L605.154 309.108V302.151L611.179 298.674Z" fill="white"/>
<path fill-rule="evenodd" clip-rule="evenodd" d="M628.165 304.742L628.166 315.435L618.903 320.782V310.088L628.165 304.742Z" fill="white"/>
<path fill-rule="evenodd" clip-rule="evenodd" d="M598.995 287.907L598.997 298.599L589.733 303.946V293.252L598.995 287.907Z" fill="white"/>
<path fill-rule="evenodd" clip-rule="evenodd" d="M608.795 332.067L608.797 352.206L591.35 362.277V342.136L608.795 332.067Z" fill="url(#paint60_linear)"/>
<path fill-rule="evenodd" clip-rule="evenodd" d="M488.562 326.466V342.087L502.092 349.896V334.277L488.562 326.466Z" fill="url(#paint61_linear)"/>
<path fill-rule="evenodd" clip-rule="evenodd" d="M513.815 311.888V327.509L539.132 342.123V326.503L513.815 311.888Z" fill="url(#paint62_linear)"/>
<path fill-rule="evenodd" clip-rule="evenodd" d="M548.755 291.713V307.332L562.285 315.143V299.522L548.755 291.713Z" fill="white"/>
<path fill-rule="evenodd" clip-rule="evenodd" d="M559.557 328.468V334.777L565.023 337.933V331.622L559.557 328.468Z" fill="white"/>
<defs>
<linearGradient id="paint0_linear" x1="211.641" y1="457.558" x2="243.134" y2="457.558" gradientUnits="userSpaceOnUse">
<stop stop-color="#004293"/>
<stop offset="0.74" stop-color="#003577"/>
<stop offset="0.88" stop-color="#00387D"/>
<stop offset="1" stop-color="#004192"/>
</linearGradient>
<linearGradient id="paint1_linear" x1="211.64" y1="447.653" x2="243.134" y2="447.653" gradientUnits="userSpaceOnUse">
<stop stop-color="#004293"/>
<stop offset="0.74" stop-color="#003577"/>
<stop offset="0.88" stop-color="#00387D"/>
<stop offset="1" stop-color="#004192"/>
</linearGradient>
<linearGradient id="paint2_linear" x1="211.641" y1="437.956" x2="243.134" y2="437.956" gradientUnits="userSpaceOnUse">
<stop stop-color="#004293"/>
<stop offset="0.74" stop-color="#003577"/>
<stop offset="0.88" stop-color="#00387D"/>
<stop offset="1" stop-color="#004192"/>
</linearGradient>
<linearGradient id="paint3_linear" x1="227.356" y1="422.18" x2="227.356" y2="440.449" gradientUnits="userSpaceOnUse">
<stop stop-color="#0069D2"/>
<stop offset="0.48" stop-color="#0071DE"/>
<stop offset="1" stop-color="#0088FF"/>
</linearGradient>
<linearGradient id="paint4_linear" x1="117.568" y1="302.363" x2="189.325" y2="354.826" gradientUnits="userSpaceOnUse">
<stop stop-color="#003D87"/>
<stop offset="0.48" stop-color="#00408E"/>
<stop offset="1" stop-color="#0048A0"/>
</linearGradient>
<linearGradient id="paint5_linear" x1="188.371" y1="344.448" x2="228.013" y2="413.137" gradientUnits="userSpaceOnUse">
<stop stop-color="#0069D2"/>
<stop offset="0.48" stop-color="#0071DE"/>
<stop offset="1" stop-color="#0088FF"/>
</linearGradient>
<linearGradient id="paint6_linear" x1="258.652" y1="303.436" x2="330.409" y2="355.899" gradientUnits="userSpaceOnUse">
<stop stop-color="#003D87"/>
<stop offset="0.48" stop-color="#00408E"/>
<stop offset="1" stop-color="#0048A0"/>
</linearGradient>
<linearGradient id="paint7_linear" x1="328.781" y1="343.909" x2="400.538" y2="396.372" gradientUnits="userSpaceOnUse">
<stop stop-color="#003D87"/>
<stop offset="0.48" stop-color="#00408E"/>
<stop offset="1" stop-color="#0048A0"/>
</linearGradient>
<linearGradient id="paint8_linear" x1="137.616" y1="383.481" x2="172.909" y2="409.284" gradientUnits="userSpaceOnUse">
<stop stop-color="#003D87"/>
<stop offset="0.48" stop-color="#00408E"/>
<stop offset="1" stop-color="#0048A0"/>
</linearGradient>
<linearGradient id="paint9_linear" x1="279.684" y1="224.026" x2="314.976" y2="249.828" gradientUnits="userSpaceOnUse">
<stop stop-color="#003D87"/>
<stop offset="0.48" stop-color="#00408E"/>
<stop offset="1" stop-color="#0048A0"/>
</linearGradient>
<linearGradient id="paint10_linear" x1="138.885" y1="223.796" x2="174.177" y2="249.6" gradientUnits="userSpaceOnUse">
<stop stop-color="#003D87"/>
<stop offset="0.48" stop-color="#00408E"/>
<stop offset="1" stop-color="#0048A0"/>
</linearGradient>
<linearGradient id="paint11_linear" x1="770.28" y1="269.968" x2="805.573" y2="295.771" gradientUnits="userSpaceOnUse">
<stop stop-color="#003D87"/>
<stop offset="0.48" stop-color="#00408E"/>
<stop offset="1" stop-color="#0048A0"/>
</linearGradient>
<linearGradient id="paint12_linear" x1="846.203" y1="386.951" x2="881.495" y2="412.754" gradientUnits="userSpaceOnUse">
<stop stop-color="#003D87"/>
<stop offset="0.48" stop-color="#00408E"/>
<stop offset="1" stop-color="#0048A0"/>
</linearGradient>
<linearGradient id="paint13_linear" x1="1049.52" y1="264.809" x2="1084.81" y2="290.612" gradientUnits="userSpaceOnUse">
<stop stop-color="#003D87"/>
<stop offset="0.48" stop-color="#00408E"/>
<stop offset="1" stop-color="#0048A0"/>
</linearGradient>
<linearGradient id="paint14_linear" x1="328.705" y1="181.448" x2="368.347" y2="250.137" gradientUnits="userSpaceOnUse">
<stop stop-color="#0069D2"/>
<stop offset="0.48" stop-color="#0071DE"/>
<stop offset="1" stop-color="#0088FF"/>
</linearGradient>
<linearGradient id="paint15_linear" x1="1029.89" y1="424.748" x2="1101.64" y2="477.211" gradientUnits="userSpaceOnUse">
<stop stop-color="#003D87"/>
<stop offset="0.48" stop-color="#00408E"/>
<stop offset="1" stop-color="#0048A0"/>
</linearGradient>
<linearGradient id="paint16_linear" x1="960.704" y1="465.447" x2="1000.35" y2="534.136" gradientUnits="userSpaceOnUse">
<stop stop-color="#0069D2"/>
<stop offset="0.48" stop-color="#0071DE"/>
<stop offset="1" stop-color="#0088FF"/>
</linearGradient>
<linearGradient id="paint17_linear" x1="1029.89" y1="344.517" x2="1101.64" y2="396.979" gradientUnits="userSpaceOnUse">
<stop stop-color="#003D87"/>
<stop offset="0.48" stop-color="#00408E"/>
<stop offset="1" stop-color="#0048A0"/>
</linearGradient>
<linearGradient id="paint18_linear" x1="1098.7" y1="385.448" x2="1138.35" y2="454.137" gradientUnits="userSpaceOnUse">
<stop stop-color="#0069D2"/>
<stop offset="0.48" stop-color="#0071DE"/>
<stop offset="1" stop-color="#0088FF"/>
</linearGradient>
<linearGradient id="paint19_linear" x1="889.514" y1="263.504" x2="961.271" y2="315.966" gradientUnits="userSpaceOnUse">
<stop stop-color="#003D87"/>
<stop offset="0.48" stop-color="#00408E"/>
<stop offset="1" stop-color="#0048A0"/>
</linearGradient>
<linearGradient id="paint20_linear" x1="912.445" y1="377.197" x2="943.938" y2="377.197" gradientUnits="userSpaceOnUse">
<stop stop-color="#004293"/>
<stop offset="0.74" stop-color="#003577"/>
<stop offset="0.88" stop-color="#00387D"/>
<stop offset="1" stop-color="#004192"/>
</linearGradient>
<linearGradient id="paint21_linear" x1="912.445" y1="367.292" x2="943.938" y2="367.292" gradientUnits="userSpaceOnUse">
<stop stop-color="#004293"/>
<stop offset="0.74" stop-color="#003577"/>
<stop offset="0.88" stop-color="#00387D"/>
<stop offset="1" stop-color="#004192"/>
</linearGradient>
<linearGradient id="paint22_linear" x1="912.445" y1="357.594" x2="943.938" y2="357.594" gradientUnits="userSpaceOnUse">
<stop stop-color="#004293"/>
<stop offset="0.74" stop-color="#003577"/>
<stop offset="0.88" stop-color="#00387D"/>
<stop offset="1" stop-color="#004192"/>
</linearGradient>
<linearGradient id="paint23_linear" x1="928.16" y1="341.819" x2="928.16" y2="360.088" gradientUnits="userSpaceOnUse">
<stop stop-color="#0069D2"/>
<stop offset="0.48" stop-color="#0071DE"/>
<stop offset="1" stop-color="#0088FF"/>
</linearGradient>
<linearGradient id="paint24_linear" x1="1058.67" y1="212.106" x2="1082.67" y2="212.106" gradientUnits="userSpaceOnUse">
<stop stop-color="#004293"/>
<stop offset="0.74" stop-color="#003577"/>
<stop offset="0.88" stop-color="#00387D"/>
<stop offset="1" stop-color="#004192"/>
</linearGradient>
<linearGradient id="paint25_linear" x1="1058.67" y1="204.557" x2="1082.67" y2="204.557" gradientUnits="userSpaceOnUse">
<stop stop-color="#004293"/>
<stop offset="0.74" stop-color="#003577"/>
<stop offset="0.88" stop-color="#00387D"/>
<stop offset="1" stop-color="#004192"/>
</linearGradient>
<linearGradient id="paint26_linear" x1="1058.67" y1="197.166" x2="1082.67" y2="197.166" gradientUnits="userSpaceOnUse">
<stop stop-color="#004293"/>
<stop offset="0.74" stop-color="#003577"/>
<stop offset="0.88" stop-color="#00387D"/>
<stop offset="1" stop-color="#004192"/>
</linearGradient>
<linearGradient id="paint27_linear" x1="1070.64" y1="185.143" x2="1070.64" y2="199.066" gradientUnits="userSpaceOnUse">
<stop stop-color="#0069D2"/>
<stop offset="0.48" stop-color="#0071DE"/>
<stop offset="1" stop-color="#0088FF"/>
</linearGradient>
<linearGradient id="paint28_linear" x1="913.509" y1="215.413" x2="943.918" y2="215.413" gradientUnits="userSpaceOnUse">
<stop stop-color="#004293"/>
<stop offset="0.74" stop-color="#003577"/>
<stop offset="0.88" stop-color="#00387D"/>
<stop offset="1" stop-color="#004192"/>
</linearGradient>
<linearGradient id="paint29_linear" x1="913.509" y1="205.849" x2="943.918" y2="205.849" gradientUnits="userSpaceOnUse">
<stop stop-color="#004293"/>
<stop offset="0.74" stop-color="#003577"/>
<stop offset="0.88" stop-color="#00387D"/>
<stop offset="1" stop-color="#004192"/>
</linearGradient>
<linearGradient id="paint30_linear" x1="913.509" y1="196.485" x2="943.918" y2="196.485" gradientUnits="userSpaceOnUse">
<stop stop-color="#004293"/>
<stop offset="0.74" stop-color="#003577"/>
<stop offset="0.88" stop-color="#00387D"/>
<stop offset="1" stop-color="#004192"/>
</linearGradient>
<linearGradient id="paint31_linear" x1="928.684" y1="181.253" x2="928.684" y2="198.893" gradientUnits="userSpaceOnUse">
<stop stop-color="#0069D2"/>
<stop offset="0.48" stop-color="#0071DE"/>
<stop offset="1" stop-color="#0088FF"/>
</linearGradient>
<linearGradient id="paint32_linear" x1="4.87207" y1="333.791" x2="27.819" y2="333.791" gradientUnits="userSpaceOnUse">
<stop stop-color="#004293"/>
<stop offset="0.74" stop-color="#003577"/>
<stop offset="0.88" stop-color="#00387D"/>
<stop offset="1" stop-color="#004192"/>
</linearGradient>
<linearGradient id="paint33_linear" x1="4.87207" y1="326.575" x2="27.819" y2="326.575" gradientUnits="userSpaceOnUse">
<stop stop-color="#004293"/>
<stop offset="0.74" stop-color="#003577"/>
<stop offset="0.88" stop-color="#00387D"/>
<stop offset="1" stop-color="#004192"/>
</linearGradient>
<linearGradient id="paint34_linear" x1="4.87207" y1="319.509" x2="27.819" y2="319.509" gradientUnits="userSpaceOnUse">
<stop stop-color="#004293"/>
<stop offset="0.74" stop-color="#003577"/>
<stop offset="0.88" stop-color="#00387D"/>
<stop offset="1" stop-color="#004192"/>
</linearGradient>
<linearGradient id="paint35_linear" x1="16.3223" y1="308.014" x2="16.3223" y2="321.325" gradientUnits="userSpaceOnUse">
<stop stop-color="#0069D2"/>
<stop offset="0.48" stop-color="#0071DE"/>
<stop offset="1" stop-color="#0088FF"/>
</linearGradient>
<linearGradient id="paint36_linear" x1="214.739" y1="212.925" x2="239.914" y2="212.925" gradientUnits="userSpaceOnUse">
<stop stop-color="#004293"/>
<stop offset="0.74" stop-color="#003577"/>
<stop offset="0.88" stop-color="#00387D"/>
<stop offset="1" stop-color="#004192"/>
</linearGradient>
<linearGradient id="paint37_linear" x1="214.739" y1="205.007" x2="239.914" y2="205.007" gradientUnits="userSpaceOnUse">
<stop stop-color="#004293"/>
<stop offset="0.74" stop-color="#003577"/>
<stop offset="0.88" stop-color="#00387D"/>
<stop offset="1" stop-color="#004192"/>
</linearGradient>
<linearGradient id="paint38_linear" x1="214.739" y1="197.255" x2="239.914" y2="197.255" gradientUnits="userSpaceOnUse">
<stop stop-color="#004293"/>
<stop offset="0.74" stop-color="#003577"/>
<stop offset="0.88" stop-color="#00387D"/>
<stop offset="1" stop-color="#004192"/>
</linearGradient>
<linearGradient id="paint39_linear" x1="227.302" y1="184.645" x2="227.302" y2="199.249" gradientUnits="userSpaceOnUse">
<stop stop-color="#0069D2"/>
<stop offset="0.48" stop-color="#0071DE"/>
<stop offset="1" stop-color="#0088FF"/>
</linearGradient>
<linearGradient id="paint40_linear" x1="581.606" y1="351.565" x2="581.606" y2="548.54" gradientUnits="userSpaceOnUse">
<stop stop-color="#00FAFF"/>
<stop offset="1" stop-color="#E6FFFF"/>
</linearGradient>
<linearGradient id="paint41_linear" x1="468.37" y1="422.134" x2="388.049" y2="90.4881" gradientUnits="userSpaceOnUse">
<stop stop-color="#00FAFF" stop-opacity="0.4"/>
<stop offset="0.16" stop-color="#00FAFF" stop-opacity="0.213333"/>
<stop offset="0.35" stop-color="#00FAFF" stop-opacity="0.0564706"/>
<stop offset="1" stop-color="#00FAFF" stop-opacity="0"/>
</linearGradient>
<linearGradient id="paint42_linear" x1="688.081" y1="422.135" x2="772.953" y2="108.987" gradientUnits="userSpaceOnUse">
<stop stop-color="#00FAFF" stop-opacity="0.4"/>
<stop offset="0.16" stop-color="#00FAFF" stop-opacity="0.213333"/>
<stop offset="0.35" stop-color="#00FAFF" stop-opacity="0.0564706"/>
<stop offset="1" stop-color="#00FAFF" stop-opacity="0"/>
</linearGradient>
<linearGradient id="paint43_linear" x1="536.685" y1="478.722" x2="521.367" y2="505.26" gradientUnits="userSpaceOnUse">
<stop stop-color="#004293"/>
<stop offset="0.48" stop-color="#076BAC" stop-opacity="0.77"/>
<stop offset="1" stop-color="#1ADCF0" stop-opacity="0.15"/>
</linearGradient>
<linearGradient id="paint44_linear" x1="597.726" y1="491.485" x2="613.605" y2="518.994" gradientUnits="userSpaceOnUse">
<stop stop-color="#013F8D"/>
<stop offset="0.48" stop-color="#0869A8" stop-opacity="0.77"/>
<stop offset="1" stop-color="#1ADCF0" stop-opacity="0.15"/>
</linearGradient>
<linearGradient id="paint45_linear" x1="578.292" y1="407.937" x2="578.292" y2="496.784" gradientUnits="userSpaceOnUse">
<stop stop-color="#14E9FF"/>
<stop offset="1" stop-color="#8CFBFF"/>
</linearGradient>
<linearGradient id="paint46_linear" x1="578.303" y1="380.5" x2="578.303" y2="457.648" gradientUnits="userSpaceOnUse">
<stop stop-color="#14E9FF"/>
<stop offset="1" stop-color="#8CFBFF"/>
</linearGradient>
<linearGradient id="paint47_linear" x1="578.335" y1="290.327" x2="499.281" y2="254.855" gradientUnits="userSpaceOnUse">
<stop stop-color="white"/>
<stop offset="1" stop-color="white" stop-opacity="0"/>
</linearGradient>
<linearGradient id="paint48_linear" x1="578.267" y1="290.233" x2="699.739" y2="220.084" gradientUnits="userSpaceOnUse">
<stop stop-color="white"/>
<stop offset="1" stop-color="white" stop-opacity="0"/>
</linearGradient>
<linearGradient id="paint49_linear" x1="578.331" y1="290.268" x2="454.149" y2="361.949" gradientUnits="userSpaceOnUse">
<stop stop-color="white" stop-opacity="0.694118"/>
<stop offset="1" stop-color="white" stop-opacity="0"/>
</linearGradient>
<linearGradient id="paint50_linear" x1="578.44" y1="290.268" x2="702.622" y2="361.949" gradientUnits="userSpaceOnUse">
<stop stop-color="white" stop-opacity="0.694118"/>
<stop offset="1" stop-color="white" stop-opacity="0"/>
</linearGradient>
<linearGradient id="paint51_linear" x1="578.253" y1="221.921" x2="578.253" y2="290.296" gradientUnits="userSpaceOnUse">
<stop stop-color="#14E9FF"/>
<stop offset="1" stop-color="#8CFBFF"/>
</linearGradient>
<linearGradient id="paint52_linear" x1="637.516" y1="324.486" x2="580.413" y2="291.51" gradientUnits="userSpaceOnUse">
<stop stop-color="#14F6FF"/>
<stop offset="1" stop-color="#14E2FD"/>
</linearGradient>
<linearGradient id="paint53_linear" x1="519.015" y1="324.491" x2="576.461" y2="291.318" gradientUnits="userSpaceOnUse">
<stop stop-color="#15E3F9"/>
<stop offset="1" stop-color="#14F6FF"/>
</linearGradient>
<linearGradient id="paint54_linear" x1="532.509" y1="219.74" x2="532.509" y2="239.636" gradientUnits="userSpaceOnUse">
<stop stop-color="#36CEFF"/>
<stop offset="1" stop-color="#79DCFC"/>
</linearGradient>
<linearGradient id="paint55_linear" x1="591.743" y1="205.358" x2="591.743" y2="222.947" gradientUnits="userSpaceOnUse">
<stop stop-color="#36CEFF"/>
<stop offset="1" stop-color="#79DCFC"/>
</linearGradient>
<linearGradient id="paint56_linear" x1="596.702" y1="241.739" x2="596.702" y2="249.131" gradientUnits="userSpaceOnUse">
<stop stop-color="#0D72DA"/>
<stop offset="1" stop-color="#0E85FF"/>
</linearGradient>
<linearGradient id="paint57_linear" x1="637.514" y1="356.451" x2="625.902" y2="349.745" gradientUnits="userSpaceOnUse">
<stop stop-color="#29C2F3"/>
<stop offset="1" stop-color="#14C8FD"/>
</linearGradient>
<linearGradient id="paint58_linear" x1="661.048" y1="300.517" x2="650.695" y2="294.539" gradientUnits="userSpaceOnUse">
<stop stop-color="#0D72DA"/>
<stop offset="1" stop-color="#0078F3"/>
</linearGradient>
<linearGradient id="paint59_linear" x1="654.321" y1="324.5" x2="648.512" y2="321.145" gradientUnits="userSpaceOnUse">
<stop stop-color="#14F6FF"/>
<stop offset="1" stop-color="#14E2FD"/>
</linearGradient>
<linearGradient id="paint60_linear" x1="611.431" y1="353.728" x2="593.957" y2="343.638" gradientUnits="userSpaceOnUse">
<stop stop-color="#0D72DA"/>
<stop offset="1" stop-color="#0078F3"/>
</linearGradient>
<linearGradient id="paint61_linear" x1="488.561" y1="342.087" x2="497.651" y2="336.837" gradientUnits="userSpaceOnUse">
<stop stop-color="#36CEFF"/>
<stop offset="1" stop-color="#14D4FF"/>
</linearGradient>
<linearGradient id="paint62_linear" x1="513.813" y1="327.509" x2="522.904" y2="322.259" gradientUnits="userSpaceOnUse">
<stop stop-color="#0077FF"/>
<stop offset="1" stop-color="#0D72DA"/>
</linearGradient>
</defs>
</svg>
